<mxfile host="app.diagrams.net" modified="2023-11-11T13:30:44.056Z" agent="Mozilla/5.0 (Windows NT 10.0; Win64; x64) AppleWebKit/537.36 (KHTML, like Gecko) Chrome/118.0.0.0 Safari/537.36" version="22.1.0" etag="gFMqF_WA7yiHJkkGt-xi" type="github">
  <diagram name="Sayfa -1" id="YUg-P571u4rqL1EHOJ3g">
    <mxGraphModel>
      <root>
        <mxCell id="0" />
        <mxCell id="1" parent="0" />
      </root>
    </mxGraphModel>
  </diagram>
</mxfile>
